<svg width="24" height="25" viewBox="0 0 24 25" fill="none" xmlns="http://www.w3.org/2000/svg">
<g clip-path="url(#clip0_7_1090)">
<path d="M1.7879 17.8606C1.55267 17.7768 1.31651 17.6943 1.08185 17.6125C1.51547 17.178 1.94726 16.7458 2.38369 16.3155C2.6399 16.357 2.89695 16.399 3.15449 16.4411C3.77994 16.5433 4.4083 16.646 5.03459 16.743L5.03457 16.7431L5.0471 16.7448C5.19478 16.7645 5.33876 16.7433 5.45281 16.7096C5.55702 16.6787 5.71947 16.613 5.85171 16.4723C7.40204 14.8676 8.95222 13.2511 10.4955 11.6415C10.5453 11.5908 10.5808 11.5425 10.6006 11.5152C10.6107 11.5013 10.6172 11.4921 10.6222 11.4851C10.63 11.4741 10.634 11.4685 10.6418 11.4585L11.0526 10.9303L10.4829 10.5793C10.0059 10.2854 9.52959 9.99192 9.05372 9.69873C6.52892 8.14313 4.01763 6.59585 1.49369 5.04238C1.53366 5.00259 1.57358 4.96285 1.61347 4.92315C2.12325 4.41567 2.62688 3.91433 3.12375 3.40696C4.36643 3.82301 5.61529 4.23913 6.86448 4.64967C7.73896 4.93969 8.61345 5.22866 9.4878 5.51759C11.0186 6.02342 12.5489 6.52911 14.0779 7.04005L14.0783 7.0402C14.2256 7.08928 14.4302 7.13555 14.6593 7.08121C14.8932 7.02576 15.0583 6.8884 15.1739 6.76323L15.1739 6.76328L15.1803 6.75614C15.4097 6.49953 15.6423 6.26075 15.8847 6.01182C16.0107 5.88248 16.1393 5.75041 16.2716 5.61166C16.5528 5.31851 16.8337 5.02521 17.1146 4.73198C17.969 3.84017 18.8228 2.94894 19.6803 2.06414C20.404 1.31793 21.499 1.36248 22.141 2.12275C22.3193 2.3363 22.4284 2.60225 22.5139 2.94395V2.945V2.94614V2.94728V2.94842V2.94956V2.9507V2.95184V2.95298V2.95412V2.95526V2.95641V2.95755V2.95869V2.95983V2.96097V2.96211V2.96325V2.96439V2.96554V2.96668V2.96782V2.96896V2.9701V2.97125V2.97239V2.97353V2.97467V2.97581V2.97696V2.9781V2.97924V2.98038V2.98153V2.98267V2.98381V2.98496V2.9861V2.98724V2.98839V2.98953V2.99067V2.99182V2.99296V2.99411V2.99525V2.99639V2.99754V2.99868V2.99983V3.00097V3.00211V3.00326V3.0044V3.00555V3.00669V3.00784V3.00898V3.01013V3.01127V3.01242V3.01356V3.01471V3.01585V3.017V3.01814V3.01929V3.02043V3.02158V3.02272V3.02387V3.02502V3.02616V3.02731V3.02845V3.0296V3.03075V3.03189V3.03304V3.03418V3.03533V3.03648V3.03762V3.03877V3.03992V3.04106V3.04221V3.04336V3.0445V3.04565V3.0468V3.04795V3.04909V3.05024V3.05139V3.05253V3.05368V3.05483V3.05598V3.05712V3.05827V3.05942V3.06057V3.06171V3.06286V3.06401V3.06516V3.0663V3.06745V3.0686V3.06975V3.0709V3.07204V3.07319V3.07434V3.07549V3.07664V3.07778V3.07893V3.08008V3.08123V3.08238V3.08353V3.08467V3.08582V3.08697V3.08812V3.08927V3.09042V3.09157V3.09272V3.09386V3.09501V3.09616V3.09731V3.09846V3.09961V3.10076V3.10191V3.10306V3.1042V3.10535V3.1065V3.10765V3.1088V3.10995V3.1111V3.11225V3.1134V3.11455V3.1157V3.11685V3.118V3.11914V3.12029V3.12144V3.12259V3.12374V3.12489V3.12604V3.12719V3.12834V3.12949V3.13064V3.13179V3.13294V3.13409V3.13524V3.13639V3.13754V3.13869V3.13984V3.14099V3.14214V3.14329V3.14444V3.14559V3.14674V3.14789V3.14903V3.15018V3.15133V3.15248V3.15363V3.15478V3.15593V3.15708V3.15823V3.15938V3.16053V3.16168V3.16283V3.16398V3.16513V3.16628V3.16743V3.16858V3.16973V3.17088V3.17203V3.17318V3.17433V3.17548V3.17663V3.17778V3.17893V3.18008V3.18123V3.18238V3.18353V3.18468V3.18583V3.18698V3.18813V3.18928V3.19043V3.19158V3.19273V3.19388V3.19503V3.19618V3.19733V3.19848V3.19962V3.20077V3.20192V3.20307V3.20422V3.20537V3.20652V3.20767V3.20882V3.20997V3.21112V3.21227V3.21342V3.21457V3.21572V3.21687V3.21802V3.21917V3.22031V3.22146V3.22261V3.22376V3.22491V3.22606V3.22721V3.22836V3.22951V3.23066V3.2318V3.23295V3.2341V3.23525V3.2364V3.23755V3.2387V3.23985V3.241V3.24214V3.24329V3.24444V3.24559V3.24674V3.24789V3.24903V3.25018V3.25133V3.25248V3.25363V3.25478V3.25592V3.25707V3.25822V3.25937V3.26052V3.26166V3.26281V3.26396V3.26511V3.26626V3.2674V3.26855V3.2697V3.27085V3.27199V3.27314V3.27429V3.27544V3.27658V3.27773V3.27888V3.28003V3.28117V3.28232V3.28347V3.28461V3.28576V3.28691V3.28805V3.2892V3.29035V3.29149V3.29264V3.29379V3.29493V3.29608V3.29723V3.29837V3.29952V3.30066V3.30181V3.30296V3.3041V3.30525V3.30639V3.30754V3.30869V3.30983V3.31098V3.31212V3.31327V3.31441V3.31556V3.3167V3.31785V3.31899V3.32014V3.32128V3.32243V3.32357V3.32472V3.32586V3.32701V3.32815V3.32929V3.33044V3.33158V3.33273V3.33387V3.33502V3.33616V3.3373V3.33845V3.33959V3.34073V3.34188V3.34302V3.34416V3.34531V3.34645V3.34759V3.34874V3.34988V3.35102V3.35216V3.35331V3.35445V3.35559V3.35673V3.35788V3.35902V3.36016V3.3613V3.36245V3.36359V3.36473V3.36587V3.36701V3.36815V3.36929V3.37044V3.37158V3.37272V3.37386V3.375V3.37614V3.37728V3.37842V3.37956V3.3807V3.38184V3.38298V3.38412V3.38526V3.3864V3.38754V3.38868V3.38982V3.39096V3.3921V3.39324V3.39438V3.39552V3.39666V3.3978V3.39893V3.40007V3.40121V3.40181C22.4124 3.89586 22.0966 4.27165 21.6098 4.72984L21.6086 4.7309C20.8153 5.48145 20.0202 6.24418 19.2265 7.0057C18.5696 7.63584 17.9137 8.26514 17.2602 8.886L17.2584 8.88777C17.1458 8.99573 17.0133 9.15424 16.9575 9.37994C16.9018 9.60503 16.9444 9.80735 16.9963 9.95961C17.6116 11.8084 18.2254 13.6587 18.8392 15.5094L18.84 15.5117L18.8407 15.5138C19.4378 17.314 20.0351 19.1145 20.6337 20.9137C20.1358 21.4044 19.6403 21.901 19.1476 22.3948C19.0985 22.444 19.0494 22.4932 19.0004 22.5423C17.8118 20.6139 16.6271 18.6895 15.4424 16.7649C14.7848 15.6966 14.1271 14.6282 13.4687 13.5591L13.1318 13.012L12.6151 13.3811C12.6128 13.3825 12.6089 13.3848 12.603 13.3882L12.6022 13.3887C12.5921 13.3946 12.5591 13.414 12.523 13.442C12.4995 13.4603 12.4723 13.4839 12.4445 13.5137C10.8147 15.0773 9.18448 16.6414 7.56019 18.2055L7.56012 18.2055L7.55212 18.2135C7.42023 18.3454 7.35922 18.5027 7.33051 18.6096C7.29989 18.7236 7.28497 18.8585 7.30315 18.9948L7.30303 18.9948L7.30486 19.0067C7.43805 19.8725 7.57792 20.7423 7.7364 21.6078L7.73671 21.6095C7.74148 21.6351 7.74423 21.6548 7.74576 21.6695C7.56728 21.8143 7.39427 21.9955 7.25757 22.1386C7.21004 22.1884 7.16691 22.2336 7.12945 22.2711L7.12941 22.271L7.1239 22.2767C6.90068 22.5059 6.67882 22.7322 6.45695 22.9586L6.44972 22.9659C6.44513 22.9706 6.44054 22.9753 6.43595 22.98C6.019 21.7872 5.60073 20.591 5.17853 19.4029L5.17594 19.3956L5.17317 19.3884C5.10655 19.2152 4.9883 19.097 4.90811 19.0305C4.82134 18.9584 4.71491 18.8938 4.59967 18.8523C3.66081 18.5131 2.72247 18.1862 1.7879 17.8606ZM2.99903 3.36605C2.99901 3.36602 2.99971 3.36616 3.00117 3.36652L2.99903 3.36605ZM20.6848 21.068C20.6848 21.068 20.6845 21.0671 20.6841 21.0653C20.6846 21.0671 20.6848 21.068 20.6848 21.068ZM7.7613 21.6627C7.76336 21.6589 7.76537 21.6556 7.76717 21.653C7.7733 21.6441 7.77349 21.6472 7.75697 21.6605L7.76027 21.6646L7.7613 21.6627Z" fill="#FF6B00" stroke="#FF6B00" stroke-width="1.2"/>
</g>
<defs>
<clipPath id="clip0_7_1090">
<rect width="23.1138" height="23.144" fill="white" transform="translate(0 0.928009)"/>
</clipPath>
</defs>
</svg>
