<svg width="24" height="23" viewBox="0 0 24 23" fill="none" xmlns="http://www.w3.org/2000/svg">
<path d="M23.4953 9.89106C23.4953 13.8075 23.4953 17.7239 23.4953 21.6403C23.4924 21.6432 23.4836 21.6461 23.4836 21.6491C23.3521 22.2921 22.8056 22.7129 22.1421 22.7129C15.2504 22.7129 8.35869 22.7158 1.46698 22.7071C1.26531 22.7071 1.05195 22.6515 0.864902 22.5756C0.44988 22.4031 0.224832 22.0641 0.11377 21.6403C0.11377 17.7239 0.11377 13.8075 0.11377 9.89106C0.172223 9.88813 0.230677 9.87936 0.286209 9.87936C7.96413 9.87936 15.6421 9.87936 23.32 9.87936C23.3784 9.87644 23.4369 9.88521 23.4953 9.89106Z" fill="#FF6B00"/>
<path d="M23.4953 4.62999C23.4953 5.93643 23.4953 7.23995 23.4953 8.5464C23.4369 8.5464 23.3784 8.54932 23.32 8.54932C15.6421 8.54932 7.96705 8.54932 0.289131 8.54932C0.230677 8.54932 0.172223 8.5464 0.11377 8.5464C0.11377 7.23995 0.11377 5.93643 0.11377 4.62999C0.128383 4.5803 0.148842 4.53354 0.160533 4.48385C0.242368 4.14774 0.41773 3.86424 0.666159 3.63335C1.04611 3.28262 1.5079 3.15987 2.01937 3.16279C3.29951 3.16864 4.57965 3.16572 5.86271 3.16572C5.92117 3.16572 5.9767 3.16572 6.04976 3.16572C6.04976 3.09849 6.04976 3.04588 6.04976 2.99328C6.04976 2.38828 6.03807 1.7862 6.05269 1.1812C6.0673 0.628815 6.52909 0.269324 7.02594 0.289783C7.58418 0.313164 7.94659 0.728187 7.94659 1.28642C7.94659 1.85635 7.94659 2.42627 7.94659 2.9962C7.94659 3.04881 7.94659 3.09849 7.94659 3.1511C10.5273 3.1511 13.0905 3.1511 15.6625 3.1511C15.6625 2.52564 15.6625 1.9148 15.6625 1.30104C15.6625 1.2192 15.6713 1.13736 15.6859 1.05553C15.7794 0.54698 16.2178 0.269324 16.6416 0.289783C17.1969 0.31901 17.5623 0.716496 17.5623 1.23966C17.5623 1.8242 17.5623 2.40874 17.5623 2.99328C17.5623 3.04588 17.5623 3.09849 17.5623 3.16572C17.6353 3.16572 17.6938 3.16572 17.7493 3.16572C19.0733 3.16572 20.3973 3.15987 21.7242 3.16864C22.3146 3.17156 22.8027 3.40245 23.1651 3.8847C23.3346 4.10682 23.4135 4.36694 23.4953 4.62999ZM6.04976 4.65044C5.59675 4.96902 5.28694 5.67046 5.52076 6.36022C5.75165 7.03829 6.42679 7.48254 7.15747 7.40362C7.85014 7.32763 8.41423 6.81908 8.53113 6.06795C8.61297 5.53894 8.31485 4.83165 7.96413 4.68844C7.94659 4.91056 7.94952 5.14146 7.90275 5.36066C7.80923 5.8166 7.34452 6.11471 6.85351 6.05918C6.4151 6.0095 6.04976 5.5974 6.04976 5.15023C6.04976 4.9924 6.04976 4.83457 6.04976 4.65044ZM17.5593 4.65629C17.5593 4.83457 17.5593 4.99532 17.5593 5.15607C17.5593 5.726 16.9894 6.17901 16.4312 6.04749C15.9548 5.93643 15.6625 5.56817 15.6625 5.07423C15.6625 4.93979 15.6625 4.80827 15.6625 4.65921C15.1393 5.03916 14.9465 5.73184 15.1423 6.33976C15.3527 6.9886 15.9723 7.46208 16.7731 7.40947C17.3489 7.37147 17.9685 6.85416 18.1088 6.27254C18.2637 5.63832 18.0299 4.92518 17.5593 4.65629Z" fill="#FF6B00"/>
</svg>
